<svg id="Capa_1" data-name="Capa 1" xmlns="http://www.w3.org/2000/svg" viewBox="0 0 303 93"><defs><style>.cls-1{fill:#fefefe00;}.cls-2{fill:#6a2125;}.cls-3{fill:#fcfcfc;}.cls-4{fill:#fdfdfd;}</style></defs><path class="cls-1" d="M303,93Q152.62,93,2.3,93C.42,93,0,92.58,0,90.71Q.11,46.37,0,2.05C0,.33.34,0,2.05,0Q151.5.08,301,0c1.71,0,2.05.33,2.05,2.05Q302.9,47.5,303,93Z" transform="translate(0 0)"/><path class="cls-2" d="M37,29.6Q37,21,37,12.37c0-1.08.15-2.24-1.49-2.34s-1.82,1.09-1.91,2.28L30.54,55.38c-.22,3.08-.42,6.15-.62,9.22A10,10,0,0,0,33,72.71c1.36,1.35,2.72,2.69,4.07,4.06,3.8,3.86,5.17,8.56,5,13.89-.06,1.56-.84,1.27-1.76,1.13C26.1,89.6,14.92,82.68,7.41,70.3-9.76,42,8.2,5.09,41,1.13c24.72-3,47.73,15.12,50.55,39.76C94.48,66.15,78.07,87.74,53,91.77c-1.47.23-2,.09-2-1.61-.17-5.84,1.6-10.78,6-14.71,1.06-.94,2-2,3-3A10.25,10.25,0,0,0,63,64.27L59.11,12.49l0-.5c0-1.09-.29-2-1.68-2C55.79,10,56,11.16,56,12.12q0,16.61,0,33.22c0,.58,0,1.16,0,1.75,0,1.08,0,1.94-1.51,1.94s-1.59-.78-1.63-1.9Q52.49,34.41,52,21.68c-.11-3.16-.22-6.32-.35-9.48,0-1,.11-2.12-1.41-2.16-1.71,0-1.21,1.28-1.23,2.14-.35,11.48-.66,23-1,34.45,0,1.1.35,2.4-1.59,2.4s-1.4-1.48-1.43-2.46c-.35-11.4-.65-22.8-1-34.19,0-1,.27-2.32-1.44-2.34-1.87,0-1.54,1.38-1.58,2.49Q40.48,29.26,40,46c0,.5-.05,1-.05,1.5,0,1.17-.61,1.54-1.75,1.55C36.77,49,37,48.11,37,47.33,37,41.42,37,35.51,37,29.6Z" transform="translate(0 0)"/><path d="M135,62.48c-2.58,0-4.65,0-6.72,0a2.09,2.09,0,0,1-2-1.13c-1.34-2-2.8-3.92-4.08-6A2.71,2.71,0,0,0,119.61,54c-4.45,0-4.45-.06-4.45,4.41,0,4,0,4-4,4-3.22,0-3.22,0-3.22-3.29,0-8.31,0-16.62,0-24.93,0-1.69.34-2.31,2.15-2.22,4.81.24,9.66-.33,14.45.42,4.51.7,8,2.91,9.35,7.46,1.5,5,0,9-4.46,12.09-.93.65-1,1.07-.33,1.91,1,1.32,1.92,2.71,2.87,4.07Z" transform="translate(0 0)"/><path d="M246.83,41.39c5.62-4.19,12.83-2.71,16.09,1a13.26,13.26,0,0,1,.16,16.54c-3.48,4.25-10,5-15.64,1.68,0,2.94-.07,5.71,0,8.47.05,1.45-.45,1.79-1.84,1.81-5.2.07-5.2.12-5.2-5.13,0-8.23,0-16.46,0-24.69,0-1.59.34-2.29,2-2.06a13.2,13.2,0,0,0,2.74,0C246.48,39,247.62,39,246.83,41.39Z" transform="translate(0 0)"/><path d="M277.43,60.71c0,2.9-.06,5.7,0,8.49,0,1.3-.37,1.66-1.68,1.7-5.35.14-5.35.19-5.35-5.24,0-8.14.05-16.29,0-24.43,0-1.68.32-2.48,2.14-2.21A9.43,9.43,0,0,0,275,39c1.42-.16,2.43.1,2.08,2,6.22-3.38,12.48-2.65,16,1.7A13.22,13.22,0,0,1,293,59C289.56,63.16,283.25,63.89,277.43,60.71Z" transform="translate(0 0)"/><path d="M238.52,62.48a11.88,11.88,0,0,0-1.92,0c-4.14.74-7-.4-7.77-5-.21-1.3-1.12-1.55-2.37-1.52-3.4.09-6.81.08-10.22,0-1.27,0-2.08.28-2.31,1.59-.77,4.32-3.45,5.7-7.56,4.92a11.93,11.93,0,0,0-2,0l2.49-5.6c3.4-7.64,6.83-15.27,10.16-22.94.62-1.42,1.44-1.73,2.94-1.95,3.92-.56,5.77,1,7.22,4.64,3.09,7.76,6.76,15.3,10.18,22.93C237.73,60.45,238.06,61.36,238.52,62.48Z" transform="translate(0 0)"/><path d="M144.73,53.05c.57,4.1,7.09,5.2,10.27,2.89s3.4,1.19,4.56,2.26c1.57,1.45-.62,2.09-1.4,2.61-6.7,4.49-17.54,1.42-20.16-5.61-1.69-4.53-.63-10.09,2.83-13.1,4.28-3.73,9.21-4.26,14.41-2.15,4.15,1.68,6.63,6,6.7,11,0,1.59-.58,1.95-2.05,1.93-5,0-10,0-15,0C144.86,52.94,144.8,53,144.73,53.05Z" transform="translate(0 0)"/><path d="M175.06,38.76A23.62,23.62,0,0,1,182.61,40c1.25.45,1.84,1,.95,2.34a7.55,7.55,0,0,0-.95,2c-.43,1.44-1.1,1.39-2.36.84a10.7,10.7,0,0,0-7.05-.85c-1,.25-2.08.58-2.09,1.78s1.08,1.36,2,1.56c2.1.46,4.23.82,6.33,1.33,3.55.85,5.28,2.74,5.52,5.84a6.7,6.7,0,0,1-4.74,6.86,20.69,20.69,0,0,1-15.08-.66c-1.14-.46-1.57-1.06-.86-2.23a10.4,10.4,0,0,0,1.05-2.24c.44-1.34,1.07-1.29,2.22-.73a13.58,13.58,0,0,0,8.21,1.45c1-.16,2.35-.27,2.27-1.8-.07-1.32-1.25-1.37-2.2-1.58-2.27-.48-4.59-.81-6.82-1.44-2.46-.7-4.23-2.16-4.55-5-.35-3,.55-5.39,3.18-7S173,38.85,175.06,38.76Z" transform="translate(0 0)"/><path d="M189.76,51c0-1,0-2,0-3,.13-1.85.25-3.61-2.54-3-.89.18-1.12-.41-1.09-1.21,0-1,.05-2,0-3s.4-1.42,1.33-1.24c2.19.42,2.41-.78,2.34-2.53-.05-1-.62-2.68.44-2.89a16,16,0,0,1,6.17.07c.82.16.41,1.82.31,2.75-.2,2,.26,2.8,2.48,2.64,3.11-.22,4.22,1.61,3.3,4.73-.35,1.19-1.22.63-1.83.66-3.9.13-3.91.11-3.9,3.92,0,1.74-.06,3.49.05,5.23.15,2.39,1.45,3.57,3.58,2.77s2.3.27,2.81,1.68c1.11,3.09.94,3.4-2.29,3.95a13.59,13.59,0,0,1-5.68-.12c-3.39-.85-5.16-3.26-5.42-7.41-.08-1.32,0-2.65,0-4Z" transform="translate(0 0)"/><path class="cls-3" d="M115.16,43.05c0-5.28,0-5.3,5.28-5a16.42,16.42,0,0,1,2.7.39,4.82,4.82,0,0,1-.17,9.47c-2.11.32-4.29.24-6.43.36-1.11.06-1.44-.5-1.4-1.52C115.19,45.53,115.16,44.29,115.16,43.05Z" transform="translate(0 0)"/><path class="cls-4" d="M247.41,50.83c0-3.65,2.3-6.26,5.61-6.29s5.77,2.66,5.81,6.18S256.4,57,253.14,57,247.42,54.49,247.41,50.83Z" transform="translate(0 0)"/><path class="cls-4" d="M288.81,50.67A5.88,5.88,0,0,1,283.18,57c-3.36.06-5.75-2.47-5.78-6.1s2.25-6.28,5.56-6.35S288.75,47.14,288.81,50.67Z" transform="translate(0 0)"/><path class="cls-3" d="M225.89,50.48h-9l4.47-10.86C223,43.47,224.39,46.85,225.89,50.48Z" transform="translate(0 0)"/><path class="cls-4" d="M144.35,48.57c.83-3,2.65-4.24,5.18-4.38a5.23,5.23,0,0,1,5.11,2.9c.52.93.55,1.52-.82,1.5C150.75,48.54,147.69,48.57,144.35,48.57Z" transform="translate(0 0)"/></svg>